<svg xmlns="http://www.w3.org/2000/svg" width="16" height="16" viewBox="0 0 16 16">
<defs></defs>
<g transform="scale(0.5)"><clipPath id="hyb-l"><rect x="0" y="0" width="16" height="32"/></clipPath><clipPath id="hyb-r"><rect x="16" y="0" width="16" height="32"/></clipPath>
  <g clip-path="url(#hyb-l)"><path d="M6.0 18.0 L6.9 14.5 L8.4 11.3 L10.0 7.0 L13.1 6.2 L16.8 5.5 L20.0 4.0 L22.3 6.9 L24.6 9.8 L28.0 12.0 L28.0 16.4 L26.9 19.8 L26.0 24.0 L22.1 26.4 L19.0 27.0 L16.0 29.0 L14.1 28.0 L10.0 27.1 L8.0 26.0 L7.9 22.8 L6.1 20.1 Z" fill="#5a5a66" stroke="#141414" stroke-width="4" stroke-linejoin="round" stroke-linecap="round" />
  <path d="M12.0 10.0 L14.1 9.4 L16.9 8.9 L19.0 8.0 L20.3 10.3 L20.6 12.6 L22.0 15.0" fill="none" stroke-linejoin="round" stroke-linecap="round" stroke="#8a8a99" stroke-width="2.6666666666666665"/>
  <path d="M9.0 20.0 L11.1 21.6 L13.2 23.0 L15.0 25.0 L17.8 24.2 L20.5 23.4 L23.0 22.0" fill="none" stroke-linejoin="round" stroke-linecap="round" stroke="#2d2d36" stroke-width="2.2857142857142856"/></g><g clip-path="url(#hyb-r)"><rect x="7" y="4" width="18" height="24" rx="3" fill="#f2b233" stroke="#141414" stroke-width="4" stroke-linejoin="round" stroke-linecap="round" />
  <rect x="7" y="10" width="18" height="3" fill="#9c6a0c"/>
  <rect x="7" y="19" width="18" height="3" fill="#9c6a0c"/>
  <ellipse cx="16" cy="4.5" rx="9" ry="2.6" fill="#ffd56b" stroke="#141414" stroke-width="4" stroke-linejoin="round" stroke-linecap="round" />
  <path d="M16 13 q3 4 0 6 q-3 -2 0 -6 Z" fill="#141414"/></g>
  <line x1="16" y1="2" x2="16" y2="30" fill="none" stroke="#141414" stroke-width="4" stroke-linejoin="round" stroke-linecap="round" /></g>
</svg>
