<svg xmlns="http://www.w3.org/2000/svg" width="150" height="40" viewBox="0 0 150 40">
<defs>
  <pattern id="hatch-btn" width="7" height="7" patternUnits="userSpaceOnUse" patternTransform="rotate(45)">
    <line x1="0" y1="0" x2="0" y2="7" stroke="#141414" stroke-width="2" stroke-opacity="0.55"/>
  </pattern>
  <pattern id="dots-btn" width="8" height="8" patternUnits="userSpaceOnUse">
    <circle cx="2" cy="2" r="1.6" fill="#141414" fill-opacity="0.35"/>
    <circle cx="6" cy="6" r="1.6" fill="#141414" fill-opacity="0.35"/>
  </pattern>
  <filter id="ink-btn" x="-5%" y="-5%" width="110%" height="110%">
    <feTurbulence type="fractalNoise" baseFrequency="0.9" numOctaves="1" seed="3" result="n"/>
    <feDisplacementMap in="SourceGraphic" in2="n" scale="1.1"/>
  </filter></defs>
<path d="M13 6 H137 Q147 6 147 16 V29 Q147 39 137 39 H13 Q3 39 3 29 V16 Q3 6 13 6 Z" fill="#141414"/><g transform="translate(0 0)"><path d="M13 3 H137 Q147 3 147 13 V25 Q147 35 137 35 H13 Q3 35 3 25 V13 Q3 3 13 3 Z" fill="#2f6fe5" stroke="#141414" stroke-width="4" stroke-linejoin="round" stroke-linecap="round" /><path d="M3.0 3.0 L51.0 2.7 L98.4 3.3 L147.0 3.0 L148.0 13.1 L146.6 25.3 L147.0 35.0 L98.1 34.8 L50.5 36.0 L3.0 35.0 L2.4 24.0 L3.0 14.6 Z" fill="none" stroke="#141414" stroke-width="2" opacity="0.5"/><path d="M14 10 H126" stroke="#f6efd9" stroke-width="4" stroke-linecap="round" opacity="0.8"/></g>
</svg>
