<svg xmlns="http://www.w3.org/2000/svg" width="48" height="48" viewBox="0 0 48 48">
<defs></defs>
<line x1="43.8" y1="26.5" x2="47.8" y2="27.0" stroke="#9c6a0c" stroke-width="3" stroke-linecap="round"/><line x1="40.2" y1="35.8" x2="48.2" y2="41.6" stroke="#9c6a0c" stroke-width="3" stroke-linecap="round"/><line x1="30.5" y1="42.9" x2="32.3" y2="48.3" stroke="#9c6a0c" stroke-width="3" stroke-linecap="round"/><line x1="21.6" y1="43.8" x2="20.5" y2="52.1" stroke="#9c6a0c" stroke-width="3" stroke-linecap="round"/><line x1="12.6" y1="40.4" x2="6.9" y2="48.6" stroke="#9c6a0c" stroke-width="3" stroke-linecap="round"/><line x1="5.8" y1="32.4" x2="-0.5" y2="35.3" stroke="#9c6a0c" stroke-width="3" stroke-linecap="round"/><line x1="4.0" y1="23.4" x2="-2.4" y2="23.3" stroke="#9c6a0c" stroke-width="3" stroke-linecap="round"/><line x1="7.2" y1="13.2" x2="3.1" y2="10.5" stroke="#9c6a0c" stroke-width="3" stroke-linecap="round"/><line x1="15.7" y1="5.8" x2="13.9" y2="1.8" stroke="#9c6a0c" stroke-width="3" stroke-linecap="round"/><line x1="25.6" y1="4.1" x2="26.3" y2="-4.5" stroke="#9c6a0c" stroke-width="3" stroke-linecap="round"/><line x1="35.0" y1="7.3" x2="37.8" y2="3.0" stroke="#9c6a0c" stroke-width="3" stroke-linecap="round"/><line x1="41.4" y1="14.1" x2="47.1" y2="10.9" stroke="#9c6a0c" stroke-width="3" stroke-linecap="round"/><circle cx="24" cy="24" r="19" fill="#f2b233" stroke="#141414" stroke-width="4" stroke-linejoin="round" stroke-linecap="round" /><path d="M16 30 L30 16 M22 14 L32 24 M12 34 L22 24" fill="none" stroke="#141414" stroke-linejoin="round" stroke-linecap="round" stroke-width="4.5"/>
</svg>
