<svg xmlns="http://www.w3.org/2000/svg" width="48" height="48" viewBox="0 0 48 48">
<defs></defs>
<line x1="43.7" y1="27.7" x2="49.6" y2="28.8" stroke="#146a33" stroke-width="3" stroke-linecap="round"/><line x1="40.9" y1="34.8" x2="44.6" y2="37.2" stroke="#146a33" stroke-width="3" stroke-linecap="round"/><line x1="33.2" y1="41.8" x2="36.4" y2="48.0" stroke="#146a33" stroke-width="3" stroke-linecap="round"/><line x1="23.7" y1="44.0" x2="23.5" y2="53.8" stroke="#146a33" stroke-width="3" stroke-linecap="round"/><line x1="11.9" y1="39.9" x2="7.0" y2="46.4" stroke="#146a33" stroke-width="3" stroke-linecap="round"/><line x1="5.4" y1="31.2" x2="-0.4" y2="33.5" stroke="#146a33" stroke-width="3" stroke-linecap="round"/><line x1="4.2" y1="21.1" x2="-4.9" y2="19.7" stroke="#146a33" stroke-width="3" stroke-linecap="round"/><line x1="7.8" y1="12.2" x2="1.0" y2="7.2" stroke="#146a33" stroke-width="3" stroke-linecap="round"/><line x1="15.5" y1="5.9" x2="12.5" y2="-0.4" stroke="#146a33" stroke-width="3" stroke-linecap="round"/><line x1="26.9" y1="4.2" x2="28.3" y2="-5.3" stroke="#146a33" stroke-width="3" stroke-linecap="round"/><line x1="37.2" y1="9.0" x2="41.7" y2="3.8" stroke="#146a33" stroke-width="3" stroke-linecap="round"/><line x1="42.0" y1="15.2" x2="49.8" y2="11.4" stroke="#146a33" stroke-width="3" stroke-linecap="round"/><circle cx="24" cy="24" r="19" fill="#2fb35a" stroke="#141414" stroke-width="4" stroke-linejoin="round" stroke-linecap="round" /><g transform="translate(4 4)"><path d="M6.0 36.0 L5.6 30.2 L5.3 24.1 L6.0 18.0 L11.3 13.2 L15.8 9.7 L20.0 5.0 L24.6 9.0 L30.0 13.3 L34.0 18.0 L33.6 23.2 L34.5 29.5 L34.0 36.0 L24.6 36.8 L14.9 35.3 Z" fill="#e5392f" stroke="#141414" stroke-linejoin="round" stroke-linecap="round" stroke-width="3.5"/>
  <path d="M3 19 L20 3 L37 19" fill="none" stroke="#141414" stroke-linejoin="round" stroke-linecap="round" stroke-width="3.5"/>
  <rect x="16" y="24" width="8" height="12" fill="#141414"/>
  <rect x="9" y="21" width="5" height="5" fill="#ff7f73" stroke="#141414" stroke-linejoin="round" stroke-linecap="round" stroke-width="2"/></g>
</svg>
