<svg xmlns="http://www.w3.org/2000/svg" width="180" height="120" viewBox="0 0 180 120">
<defs>
  <pattern id="hatch-c39" width="7" height="7" patternUnits="userSpaceOnUse" patternTransform="rotate(45)">
    <line x1="0" y1="0" x2="0" y2="7" stroke="#167a4c" stroke-width="2" stroke-opacity="0.55"/>
  </pattern>
  <pattern id="dots-c39" width="8" height="8" patternUnits="userSpaceOnUse">
    <circle cx="2" cy="2" r="1.6" fill="#167a4c" fill-opacity="0.35"/>
    <circle cx="6" cy="6" r="1.6" fill="#167a4c" fill-opacity="0.35"/>
  </pattern>
  <filter id="ink-c39" x="-5%" y="-5%" width="110%" height="110%">
    <feTurbulence type="fractalNoise" baseFrequency="0.9" numOctaves="1" seed="3" result="n"/>
    <feDisplacementMap in="SourceGraphic" in2="n" scale="1.1"/>
  </filter></defs>

  <path d="M14 6 H166 Q178 6 178 18 V110 Q178 122 166 122 H14 Q2 122 2 110 V18 Q2 6 14 6 Z" fill="#141414" opacity="0.9"/>
  <path d="M12 0 H164 Q176 0 176 12 V104 Q176 116 164 116 H12 Q0 116 0 104 V12 Q0 0 12 0 Z" fill="#f6efd9" stroke="#141414" stroke-width="4" stroke-linejoin="round" stroke-linecap="round" />
  <path d="M4.0 4.0 L61.4 3.9 L118.4 3.2 L176.0 4.0 L176.3 41.2 L176.3 77.5 L176.0 116.0 L118.4 115.3 L61.9 114.7 L4.0 116.0 L4.4 78.0 L3.8 40.6 Z" fill="none" stroke="#5fe39a" stroke-width="6" stroke-linejoin="round" opacity="0.9"/>
  <rect x="8" y="8" width="160" height="26" rx="6" fill="#5fe39a" stroke="#141414" stroke-linejoin="round" stroke-linecap="round" stroke-width="3"/>
  <rect x="8" y="8" width="160" height="26" rx="6" fill="url(#dots-c39)"/>
  <rect x="8" y="84" width="160" height="24" rx="6" fill="#b5ffd9" stroke="#141414" stroke-linejoin="round" stroke-linecap="round" stroke-width="3"/>
  <rect x="8" y="84" width="160" height="24" rx="6" fill="url(#hatch-c39)" opacity="0.35"/>
    <clipPath id="art-c39"><rect x="10" y="36" width="160" height="48" rx="4"/></clipPath>
    <g clip-path="url(#art-c39)"><g transform="translate(46 38) scale(0.66)"><rect x="6" y="46" width="34" height="22" fill="#167a4c" stroke="#141414" stroke-width="4" stroke-linejoin="round" stroke-linecap="round" /><path d="M23 46 a14 14 0 0 1 0 -24 a14 14 0 0 1 0 24 Z" fill="#5fe39a" stroke="#141414" stroke-width="4" stroke-linejoin="round" stroke-linecap="round" /><g transform="translate(8 14) scale(0.5)"><circle cx="16" cy="16" r="14" fill="#5fe39a" stroke="#141414" stroke-width="4" stroke-linejoin="round" stroke-linecap="round" /><path d="M16 16 L10.03743834587516 5.586169843868202 A12 12 0 0 1 21.96256165412484 5.586169843868202 Z" fill="#141414"/><path d="M16 16 L27.999922292969025 16.043185213962822 A12 12 0 0 1 22.037360638844184 26.370644942168973 Z" fill="#141414"/><path d="M16 16 L9.962639361155816 26.370644942168976 A12 12 0 0 1 4.000077707030975 16.043185213962822 Z" fill="#141414"/>
  <circle cx="16" cy="16" r="3.5" fill="#b5ffd9" stroke="#141414" stroke-linejoin="round" stroke-linecap="round" stroke-width="2.5"/>
  </g><path d="M48 68 L52 30 Q58 24 64 30 L68 68 Z" fill="#b5ffd9" stroke="#141414" stroke-width="4" stroke-linejoin="round" stroke-linecap="round" /><circle cx="57.47434542626142" cy="24" r="4.800000000000001" fill="#f6efd9" stroke="#141414" stroke-linejoin="round" stroke-linecap="round" stroke-width="3"/><circle cx="63.16956274062395" cy="16.8" r="6.800000000000001" fill="#f6efd9" stroke="#141414" stroke-linejoin="round" stroke-linecap="round" stroke-width="3"/><circle cx="70.48370741084219" cy="9.6" r="8.8" fill="#f6efd9" stroke="#141414" stroke-linejoin="round" stroke-linecap="round" stroke-width="3"/><path d="M72 68 L76 30 Q82 24 88 30 L92 68 Z" fill="#b5ffd9" stroke="#141414" stroke-width="4" stroke-linejoin="round" stroke-linecap="round" /><circle cx="83.32631119936704" cy="24" r="4.800000000000001" fill="#f6efd9" stroke="#141414" stroke-linejoin="round" stroke-linecap="round" stroke-width="3"/><circle cx="88.05344773232937" cy="16.8" r="6.800000000000001" fill="#f6efd9" stroke="#141414" stroke-linejoin="round" stroke-linecap="round" stroke-width="3"/><circle cx="92.67210157290101" cy="9.6" r="8.8" fill="#f6efd9" stroke="#141414" stroke-linejoin="round" stroke-linecap="round" stroke-width="3"/></g></g>
    <circle cx="26" cy="21" r="16" fill="#f6efd9" stroke="#141414" stroke-width="4" stroke-linejoin="round" stroke-linecap="round" />
    <text x="26" y="27" text-anchor="middle" font-family="'Arial Black','Helvetica Neue',Arial,sans-serif" font-weight="900" font-size="18" fill="#141414" stroke="#f6efd9" stroke-width="2.5714285714285716" paint-order="stroke" stroke-linejoin="round">39</text>
    <text x="112" y="27" text-anchor="middle" font-family="'Arial Black','Helvetica Neue',Arial,sans-serif" font-weight="900" font-size="12" fill="#f6efd9" stroke="#141414" stroke-width="2" paint-order="stroke" stroke-linejoin="round">URANIUM</text>
    
    <g transform="translate(20 86) scale(0.55)"><circle cx="16" cy="16" r="14" fill="#5fe39a" stroke="#141414" stroke-width="4" stroke-linejoin="round" stroke-linecap="round" /><path d="M16 16 L10.03743834587516 5.586169843868202 A12 12 0 0 1 21.96256165412484 5.586169843868202 Z" fill="#141414"/><path d="M16 16 L27.999922292969025 16.043185213962822 A12 12 0 0 1 22.037360638844184 26.370644942168973 Z" fill="#141414"/><path d="M16 16 L9.962639361155816 26.370644942168976 A12 12 0 0 1 4.000077707030975 16.043185213962822 Z" fill="#141414"/>
  <circle cx="16" cy="16" r="3.5" fill="#b5ffd9" stroke="#141414" stroke-linejoin="round" stroke-linecap="round" stroke-width="2.5"/>
  <line x1="31.5" y1="16.5" x2="33.0" y2="16.6" stroke="#167a4c" stroke-width="3" stroke-linecap="round"/><line x1="26.5" y1="27.4" x2="30.1" y2="31.4" stroke="#167a4c" stroke-width="3" stroke-linecap="round"/><line x1="13.1" y1="31.2" x2="11.9" y2="37.6" stroke="#167a4c" stroke-width="3" stroke-linecap="round"/><line x1="4.3" y1="26.1" x2="2.6" y2="27.5" stroke="#167a4c" stroke-width="3" stroke-linecap="round"/><line x1="0.5" y1="15.4" x2="-2.4" y2="15.3" stroke="#167a4c" stroke-width="3" stroke-linecap="round"/><line x1="7.4" y1="3.1" x2="6.5" y2="1.7" stroke="#167a4c" stroke-width="3" stroke-linecap="round"/><line x1="17.4" y1="0.6" x2="17.9" y2="-4.4" stroke="#167a4c" stroke-width="3" stroke-linecap="round"/><line x1="28.6" y1="7.0" x2="34.1" y2="3.2" stroke="#167a4c" stroke-width="3" stroke-linecap="round"/></g>
    <text x="52" y="104" text-anchor="start" font-family="'Arial Black','Helvetica Neue',Arial,sans-serif" font-weight="900" font-size="15" fill="#f6efd9" stroke="#141414" stroke-width="2.142857142857143" paint-order="stroke" stroke-linejoin="round">×1</text>
    <path transform="translate(118 86) scale(0.9166666666666666)" d="M13 1 L4 14 H11 L9 23 L20 9 H13 Z" fill="#ffd33d" stroke="#141414" stroke-linejoin="round" stroke-linecap="round" stroke-width="2.6"/>
    <text x="150" y="104" text-anchor="start" font-family="'Arial Black','Helvetica Neue',Arial,sans-serif" font-weight="900" font-size="17" fill="#f6efd9" stroke="#141414" stroke-width="2.4285714285714284" paint-order="stroke" stroke-linejoin="round">6</text>
</svg>
