<svg xmlns="http://www.w3.org/2000/svg" width="180" height="120" viewBox="0 0 180 120">
<defs>
  <pattern id="hatch-c44" width="7" height="7" patternUnits="userSpaceOnUse" patternTransform="rotate(45)">
    <line x1="0" y1="0" x2="0" y2="7" stroke="#1e6e99" stroke-width="2" stroke-opacity="0.55"/>
  </pattern>
  <pattern id="dots-c44" width="8" height="8" patternUnits="userSpaceOnUse">
    <circle cx="2" cy="2" r="1.6" fill="#1e6e99" fill-opacity="0.35"/>
    <circle cx="6" cy="6" r="1.6" fill="#1e6e99" fill-opacity="0.35"/>
  </pattern>
  <filter id="ink-c44" x="-5%" y="-5%" width="110%" height="110%">
    <feTurbulence type="fractalNoise" baseFrequency="0.9" numOctaves="1" seed="3" result="n"/>
    <feDisplacementMap in="SourceGraphic" in2="n" scale="1.1"/>
  </filter></defs>

  <path d="M14 6 H166 Q178 6 178 18 V110 Q178 122 166 122 H14 Q2 122 2 110 V18 Q2 6 14 6 Z" fill="#141414" opacity="0.9"/>
  <path d="M12 0 H164 Q176 0 176 12 V104 Q176 116 164 116 H12 Q0 116 0 104 V12 Q0 0 12 0 Z" fill="#f6efd9" stroke="#141414" stroke-width="4" stroke-linejoin="round" stroke-linecap="round" />
  <path d="M4.0 4.0 L61.8 5.1 L119.4 4.1 L176.0 4.0 L176.5 40.3 L177.3 79.3 L176.0 116.0 L119.0 116.8 L62.4 117.2 L4.0 116.0 L4.7 79.9 L3.8 40.9 Z" fill="none" stroke="#6ac1e8" stroke-width="6" stroke-linejoin="round" opacity="0.9"/>
  <rect x="8" y="8" width="160" height="26" rx="6" fill="#6ac1e8" stroke="#141414" stroke-linejoin="round" stroke-linecap="round" stroke-width="3"/>
  <rect x="8" y="8" width="160" height="26" rx="6" fill="url(#dots-c44)"/>
  <rect x="8" y="84" width="160" height="24" rx="6" fill="#bfe9ff" stroke="#141414" stroke-linejoin="round" stroke-linecap="round" stroke-width="3"/>
  <rect x="8" y="84" width="160" height="24" rx="6" fill="url(#hatch-c44)" opacity="0.35"/>
    <clipPath id="art-c44"><rect x="10" y="36" width="160" height="48" rx="4"/></clipPath>
    <g clip-path="url(#art-c44)"><g transform="translate(46 38) scale(0.66)"><path d="M0 68 Q30 58 60 66 T100 64 V70 H0 Z" fill="#2fb35a" stroke="#141414" stroke-width="4" stroke-linejoin="round" stroke-linecap="round" /><path d="M13 66 L14.5 22 L17.5 22 L19 66 Z" fill="#bfe9ff" stroke="#141414" stroke-linejoin="round" stroke-linecap="round" stroke-width="2.6"/><g transform="rotate(68 16 22)"><path d="M16 22 q-3 -8 1 -12 q4 4 1 12 Z" fill="#ffffff" stroke="#141414" stroke-linejoin="round" stroke-linecap="round" stroke-width="2.4"/></g><g transform="rotate(188 16 22)"><path d="M16 22 q-3 -8 1 -12 q4 4 1 12 Z" fill="#ffffff" stroke="#141414" stroke-linejoin="round" stroke-linecap="round" stroke-width="2.4"/></g><g transform="rotate(308 16 22)"><path d="M16 22 q-3 -8 1 -12 q4 4 1 12 Z" fill="#ffffff" stroke="#141414" stroke-linejoin="round" stroke-linecap="round" stroke-width="2.4"/></g><circle cx="16" cy="22" r="2.2" fill="#141414"/><path d="M32 66 L33.5 29 L36.5 29 L38 66 Z" fill="#bfe9ff" stroke="#141414" stroke-linejoin="round" stroke-linecap="round" stroke-width="2.6"/><g transform="rotate(118 35 29)"><path d="M35 29 q-3 -8 1 -10.5 q4 4 1 10.5 Z" fill="#ffffff" stroke="#141414" stroke-linejoin="round" stroke-linecap="round" stroke-width="2.4"/></g><g transform="rotate(238 35 29)"><path d="M35 29 q-3 -8 1 -10.5 q4 4 1 10.5 Z" fill="#ffffff" stroke="#141414" stroke-linejoin="round" stroke-linecap="round" stroke-width="2.4"/></g><g transform="rotate(358 35 29)"><path d="M35 29 q-3 -8 1 -10.5 q4 4 1 10.5 Z" fill="#ffffff" stroke="#141414" stroke-linejoin="round" stroke-linecap="round" stroke-width="2.4"/></g><circle cx="35" cy="29" r="2.2" fill="#141414"/><path d="M51 66 L52.5 36 L55.5 36 L57 66 Z" fill="#bfe9ff" stroke="#141414" stroke-linejoin="round" stroke-linecap="round" stroke-width="2.6"/><g transform="rotate(48 54 36)"><path d="M54 36 q-3 -8 1 -9 q4 4 1 9 Z" fill="#ffffff" stroke="#141414" stroke-linejoin="round" stroke-linecap="round" stroke-width="2.4"/></g><g transform="rotate(168 54 36)"><path d="M54 36 q-3 -8 1 -9 q4 4 1 9 Z" fill="#ffffff" stroke="#141414" stroke-linejoin="round" stroke-linecap="round" stroke-width="2.4"/></g><g transform="rotate(288 54 36)"><path d="M54 36 q-3 -8 1 -9 q4 4 1 9 Z" fill="#ffffff" stroke="#141414" stroke-linejoin="round" stroke-linecap="round" stroke-width="2.4"/></g><circle cx="54" cy="36" r="2.2" fill="#141414"/><path d="M70 66 L71.5 43 L74.5 43 L76 66 Z" fill="#bfe9ff" stroke="#141414" stroke-linejoin="round" stroke-linecap="round" stroke-width="2.6"/><g transform="rotate(98 73 43)"><path d="M73 43 q-3 -8 1 -7.5 q4 4 1 7.5 Z" fill="#ffffff" stroke="#141414" stroke-linejoin="round" stroke-linecap="round" stroke-width="2.4"/></g><g transform="rotate(218 73 43)"><path d="M73 43 q-3 -8 1 -7.5 q4 4 1 7.5 Z" fill="#ffffff" stroke="#141414" stroke-linejoin="round" stroke-linecap="round" stroke-width="2.4"/></g><g transform="rotate(338 73 43)"><path d="M73 43 q-3 -8 1 -7.5 q4 4 1 7.5 Z" fill="#ffffff" stroke="#141414" stroke-linejoin="round" stroke-linecap="round" stroke-width="2.4"/></g><circle cx="73" cy="43" r="2.2" fill="#141414"/><circle cx="88" cy="12" r="6" fill="#ffd33d" stroke="#141414" stroke-width="4" stroke-linejoin="round" stroke-linecap="round" /><line x1="95.9" y1="13.3" x2="101.0" y2="14.1" stroke="#ff7a2a" stroke-width="3" stroke-linecap="round"/><line x1="93.0" y1="18.3" x2="98.5" y2="25.1" stroke="#ff7a2a" stroke-width="3" stroke-linecap="round"/><line x1="87.3" y1="20.0" x2="87.0" y2="23.8" stroke="#ff7a2a" stroke-width="3" stroke-linecap="round"/><line x1="82.0" y1="17.3" x2="79.3" y2="19.7" stroke="#ff7a2a" stroke-width="3" stroke-linecap="round"/><line x1="80.0" y1="11.3" x2="75.6" y2="10.9" stroke="#ff7a2a" stroke-width="3" stroke-linecap="round"/><line x1="82.5" y1="6.2" x2="76.7" y2="0.2" stroke="#ff7a2a" stroke-width="3" stroke-linecap="round"/><line x1="88.8" y1="4.0" x2="89.4" y2="-1.4" stroke="#ff7a2a" stroke-width="3" stroke-linecap="round"/><line x1="94.1" y1="6.9" x2="100.4" y2="1.6" stroke="#ff7a2a" stroke-width="3" stroke-linecap="round"/></g></g>
    <circle cx="26" cy="21" r="16" fill="#f6efd9" stroke="#141414" stroke-width="4" stroke-linejoin="round" stroke-linecap="round" />
    <text x="26" y="27" text-anchor="middle" font-family="'Arial Black','Helvetica Neue',Arial,sans-serif" font-weight="900" font-size="18" fill="#141414" stroke="#f6efd9" stroke-width="2.5714285714285716" paint-order="stroke" stroke-linejoin="round">44</text>
    <text x="112" y="27" text-anchor="middle" font-family="'Arial Black','Helvetica Neue',Arial,sans-serif" font-weight="900" font-size="12" fill="#f6efd9" stroke="#141414" stroke-width="2" paint-order="stroke" stroke-linejoin="round">WIND</text>
    
    <path transform="translate(118 86) scale(0.9166666666666666)" d="M13 1 L4 14 H11 L9 23 L20 9 H13 Z" fill="#ffd33d" stroke="#141414" stroke-linejoin="round" stroke-linecap="round" stroke-width="2.6"/>
    <text x="150" y="104" text-anchor="start" font-family="'Arial Black','Helvetica Neue',Arial,sans-serif" font-weight="900" font-size="17" fill="#f6efd9" stroke="#141414" stroke-width="2.4285714285714284" paint-order="stroke" stroke-linejoin="round">5</text>
</svg>
