<svg xmlns="http://www.w3.org/2000/svg" width="180" height="120" viewBox="0 0 180 120">
<defs>
  <pattern id="hatch-c38" width="7" height="7" patternUnits="userSpaceOnUse" patternTransform="rotate(45)">
    <line x1="0" y1="0" x2="0" y2="7" stroke="#3f6a1d" stroke-width="2" stroke-opacity="0.55"/>
  </pattern>
  <pattern id="dots-c38" width="8" height="8" patternUnits="userSpaceOnUse">
    <circle cx="2" cy="2" r="1.6" fill="#3f6a1d" fill-opacity="0.35"/>
    <circle cx="6" cy="6" r="1.6" fill="#3f6a1d" fill-opacity="0.35"/>
  </pattern>
  <filter id="ink-c38" x="-5%" y="-5%" width="110%" height="110%">
    <feTurbulence type="fractalNoise" baseFrequency="0.9" numOctaves="1" seed="3" result="n"/>
    <feDisplacementMap in="SourceGraphic" in2="n" scale="1.1"/>
  </filter></defs>

  <path d="M14 6 H166 Q178 6 178 18 V110 Q178 122 166 122 H14 Q2 122 2 110 V18 Q2 6 14 6 Z" fill="#141414" opacity="0.9"/>
  <path d="M12 0 H164 Q176 0 176 12 V104 Q176 116 164 116 H12 Q0 116 0 104 V12 Q0 0 12 0 Z" fill="#f6efd9" stroke="#141414" stroke-width="4" stroke-linejoin="round" stroke-linecap="round" />
  <path d="M4.0 4.0 L62.3 3.3 L119.6 4.2 L176.0 4.0 L176.5 41.1 L176.4 78.3 L176.0 116.0 L117.5 115.3 L61.1 114.8 L4.0 116.0 L4.2 80.0 L2.7 40.3 Z" fill="none" stroke="#7ab648" stroke-width="6" stroke-linejoin="round" opacity="0.9"/>
  <rect x="8" y="8" width="160" height="26" rx="6" fill="#7ab648" stroke="#141414" stroke-linejoin="round" stroke-linecap="round" stroke-width="3"/>
  <rect x="8" y="8" width="160" height="26" rx="6" fill="url(#dots-c38)"/>
  <rect x="8" y="84" width="160" height="24" rx="6" fill="#b6e07a" stroke="#141414" stroke-linejoin="round" stroke-linecap="round" stroke-width="3"/>
  <rect x="8" y="84" width="160" height="24" rx="6" fill="url(#hatch-c38)" opacity="0.35"/>
    <clipPath id="art-c38"><rect x="10" y="36" width="160" height="48" rx="4"/></clipPath>
    <g clip-path="url(#art-c38)"><g transform="translate(46 38) scale(0.66)"><path d="M10.0 68.0 L9.4 56.9 L9.6 44.5 L10.0 34.0 L30.8 33.0 L49.9 34.3 L70.0 34.0 L70.8 46.0 L70.4 55.8 L70.0 68.0 L50.9 68.0 L29.0 67.2 Z" fill="#7ab648" stroke="#141414" stroke-width="4" stroke-linejoin="round" stroke-linecap="round" />
  <path d="M10 34 L40 14 L70 34 Z" fill="#3f6a1d" stroke="#141414" stroke-width="4" stroke-linejoin="round" stroke-linecap="round" />
  <path d="M30 68 V48 H50 V68" fill="#141414"/>
  <path d="M38 48 a8 8 0 1 0 12 0" fill="none" stroke-linejoin="round" stroke-linecap="round" stroke="#f2b233" stroke-width="3"/><rect x="76" y="40" width="16" height="28" fill="#b6e07a" stroke="#141414" stroke-width="4" stroke-linejoin="round" stroke-linecap="round" /><rect x="74" y="36" width="20" height="5" fill="#3f6a1d" stroke="#141414" stroke-linejoin="round" stroke-linecap="round" stroke-width="2.5"/><path d="M14 64 l3 -6 l3 6" fill="#9c6a3a" stroke="#141414" stroke-linejoin="round" stroke-linecap="round" stroke-width="2.5"/><path d="M23 64 l3 -6 l3 6" fill="#9c6a3a" stroke="#141414" stroke-linejoin="round" stroke-linecap="round" stroke-width="2.5"/><path d="M32 64 l3 -6 l3 6" fill="#9c6a3a" stroke="#141414" stroke-linejoin="round" stroke-linecap="round" stroke-width="2.5"/><path d="M41 64 l3 -6 l3 6" fill="#9c6a3a" stroke="#141414" stroke-linejoin="round" stroke-linecap="round" stroke-width="2.5"/><circle cx="17.842842024564742" cy="10" r="3.5999999999999996" fill="#f6efd9" stroke="#141414" stroke-linejoin="round" stroke-linecap="round" stroke-width="3"/><circle cx="22.749176606722177" cy="4.6000000000000005" r="5.1" fill="#f6efd9" stroke="#141414" stroke-linejoin="round" stroke-linecap="round" stroke-width="3"/></g></g>
    <circle cx="26" cy="21" r="16" fill="#f6efd9" stroke="#141414" stroke-width="4" stroke-linejoin="round" stroke-linecap="round" />
    <text x="26" y="27" text-anchor="middle" font-family="'Arial Black','Helvetica Neue',Arial,sans-serif" font-weight="900" font-size="18" fill="#141414" stroke="#f6efd9" stroke-width="2.5714285714285716" paint-order="stroke" stroke-linejoin="round">38</text>
    <text x="112" y="27" text-anchor="middle" font-family="'Arial Black','Helvetica Neue',Arial,sans-serif" font-weight="900" font-size="12" fill="#f6efd9" stroke="#141414" stroke-width="2" paint-order="stroke" stroke-linejoin="round">GARBAGE</text>
    
    <g transform="translate(20 86) scale(0.55)"><path d="M8.0 29.0 L7.5 24.3 L6.6 20.4 L5.0 17.0 L7.4 15.2 L8.4 13.3 L11.0 11.0 L13.0 9.7 L14.8 9.1 L16.0 8.0 L17.4 9.6 L18.7 9.8 L21.0 11.0 L22.9 13.3 L25.4 14.3 L27.0 17.0 L26.5 21.8 L25.2 25.7 L24.0 29.0 L18.2 29.0 L13.5 29.2 Z" fill="#7ab648" stroke="#141414" stroke-width="4" stroke-linejoin="round" stroke-linecap="round" />
  <path d="M13 9 l-2 -5 M19 9 l2 -5" fill="none" stroke="#141414" stroke-width="4" stroke-linejoin="round" stroke-linecap="round" />
  <path d="M10 17 a6 6 0 1 0 12 0 M16 11 v12" fill="none" stroke-linejoin="round" stroke-linecap="round" stroke="#3f6a1d" stroke-width="2.5"/></g>
    <text x="52" y="104" text-anchor="start" font-family="'Arial Black','Helvetica Neue',Arial,sans-serif" font-weight="900" font-size="15" fill="#f6efd9" stroke="#141414" stroke-width="2.142857142857143" paint-order="stroke" stroke-linejoin="round">×3</text>
    <path transform="translate(118 86) scale(0.9166666666666666)" d="M13 1 L4 14 H11 L9 23 L20 9 H13 Z" fill="#ffd33d" stroke="#141414" stroke-linejoin="round" stroke-linecap="round" stroke-width="2.6"/>
    <text x="150" y="104" text-anchor="start" font-family="'Arial Black','Helvetica Neue',Arial,sans-serif" font-weight="900" font-size="17" fill="#f6efd9" stroke="#141414" stroke-width="2.4285714285714284" paint-order="stroke" stroke-linejoin="round">7</text>
</svg>
